<svg width="36" height="36" viewBox="0 0 36 36" fill="none" xmlns="http://www.w3.org/2000/svg">
<path d="M20.8125 6.46875L21.375 6.75C22.7109 7.45312 23.625 8.85938 23.625 10.3359V10.6875C23.625 11.0391 23.8359 11.25 24.1875 11.25C24.4688 11.25 24.75 11.0391 24.75 10.6875V10.3359C24.75 8.36719 23.625 6.60938 21.8672 5.76562L21.3047 5.48438C19.9688 4.78125 19.125 3.44531 19.125 1.89844V0.5625C19.125 0.28125 18.8438 0 18.5625 0C18.2109 0 18 0.28125 18 0.5625V1.89844C18 3.86719 19.0547 5.625 20.8125 6.46875ZM11.8125 6.46875L12.375 6.75C13.7109 7.45312 14.625 8.85938 14.625 10.3359V10.6875C14.625 11.0391 14.8359 11.25 15.1875 11.25C15.4688 11.25 15.75 11.0391 15.75 10.6875V10.3359C15.75 8.36719 14.625 6.60938 12.8672 5.76562L12.3047 5.48438C10.9688 4.78125 10.125 3.44531 10.125 1.89844V0.5625C10.125 0.28125 9.84375 0 9.5625 0C9.21094 0 9 0.28125 9 0.5625V1.89844C9 3.86719 10.0547 5.625 11.8125 6.46875ZM33.75 13.5703H2.25C0.984375 13.5703 0 14.5547 0 15.75C0 22.4297 3.58594 28.2656 9 31.3594V33.75C9 35.0156 9.98438 36 11.25 36H24.75C25.9453 36 27 35.0156 27 33.75V31.3594C32.3438 28.2656 36 22.4297 36 15.75C36 14.5547 34.9453 13.5703 33.75 13.5703ZM26.3672 30.375L25.875 30.7266V33.75C25.875 34.3828 25.3125 34.875 24.75 34.875H11.25C10.6172 34.875 10.125 34.3828 10.125 33.75V30.7266L9.5625 30.375C4.28906 27.3516 1.125 21.7969 1.125 15.75C1.125 15.1875 1.61719 14.6953 2.25 14.6953H33.75C34.3125 14.6953 34.875 15.1875 34.875 15.75C34.875 21.7969 31.6406 27.3516 26.3672 30.375Z" fill="#000080"/>
</svg>
