<svg width="27" height="36" viewBox="0 0 27 36" fill="none" xmlns="http://www.w3.org/2000/svg">
<path d="M21.9375 15.75H5.0625C4.71094 15.75 4.5 16.0312 4.5 16.3125C4.5 16.6641 4.71094 16.875 5.0625 16.875H21.9375C22.2188 16.875 22.5 16.6641 22.5 16.3125C22.5 16.0312 22.2188 15.75 21.9375 15.75ZM15.1875 22.5H5.0625C4.71094 22.5 4.5 22.7812 4.5 23.0625C4.5 23.4141 4.71094 23.625 5.0625 23.625H15.1875C15.4688 23.625 15.75 23.4141 15.75 23.0625C15.75 22.7812 15.4688 22.5 15.1875 22.5ZM22.5 0H4.5C1.96875 0 0 2.03906 0 4.5V31.5C0 34.0312 1.96875 36 4.5 36H22.5C24.9609 36 27 34.0312 27 31.5V4.5C27 2.03906 24.9609 0 22.5 0ZM25.875 31.5C25.875 33.3984 24.3281 34.875 22.5 34.875H4.5C2.60156 34.875 1.125 33.3984 1.125 31.5V4.5C1.125 2.67188 2.60156 1.125 4.5 1.125H22.5C24.3281 1.125 25.875 2.67188 25.875 4.5V31.5ZM21.9375 9H5.0625C4.71094 9 4.5 9.28125 4.5 9.5625C4.5 9.91406 4.71094 10.125 5.0625 10.125H21.9375C22.2188 10.125 22.5 9.91406 22.5 9.5625C22.5 9.28125 22.2188 9 21.9375 9Z" fill="#000080"/>
</svg>
