<svg width="45" height="36" viewBox="0 0 45 36" fill="none" xmlns="http://www.w3.org/2000/svg">
<path d="M29.25 9C29.5312 9 29.8125 8.78906 29.8125 8.4375V0.5625C29.8125 0.28125 29.5312 0 29.25 0C28.8984 0 28.6875 0.28125 28.6875 0.5625V8.4375C28.6875 8.78906 28.8984 9 29.25 9ZM34.875 9.5625C35.0156 9.5625 35.1562 9.5625 35.2969 9.42188L40.8516 3.86719C41.0625 3.65625 41.0625 3.30469 40.8516 3.09375C40.6406 2.88281 40.2891 2.88281 40.0781 3.09375L34.5234 8.64844C34.3125 8.85938 34.3125 9.21094 34.5234 9.42188C34.5938 9.5625 34.7344 9.5625 34.875 9.5625ZM23.1328 9.42188C23.2734 9.5625 23.4141 9.5625 23.5547 9.5625C23.6953 9.5625 23.8359 9.5625 23.9062 9.42188C24.1172 9.21094 24.1172 8.85938 23.9062 8.64844L18.3516 3.09375C18.1406 2.88281 17.7891 2.88281 17.5781 3.09375C17.3672 3.30469 17.3672 3.65625 17.5781 3.86719L23.1328 9.42188ZM6.75 21.375C6.11719 21.375 5.625 21.9375 5.625 22.5C5.625 23.1328 6.11719 23.625 6.75 23.625C7.3125 23.625 7.875 23.1328 7.875 22.5C7.875 21.9375 7.3125 21.375 6.75 21.375ZM13.5 21.375C12.8672 21.375 12.375 21.9375 12.375 22.5C12.375 23.1328 12.8672 23.625 13.5 23.625C14.0625 23.625 14.625 23.1328 14.625 22.5C14.625 21.9375 14.0625 21.375 13.5 21.375ZM39.9375 13.5H36C35.9297 13.5 35.9297 13.5703 35.9297 13.5703C34.0312 12.1641 31.7109 11.25 29.25 11.25C26.7188 11.25 24.3984 12.1641 22.5 13.5703V13.5H5.0625C2.25 13.5 0 15.8203 0 18.5625V26.4375C0 29.1094 1.96875 31.2188 4.5 31.5V35.4375C4.5 35.7891 4.71094 36 5.0625 36C5.34375 36 5.625 35.7891 5.625 35.4375V31.5H22.5C24.3984 32.9062 26.7188 33.75 29.25 33.75C31.7109 33.75 34.0312 32.9062 35.9297 31.5C35.9297 31.5 35.9297 31.5 36 31.5H39.375V35.4375C39.375 35.7891 39.5859 36 39.9375 36C40.2188 36 40.5 35.7891 40.5 35.4375V31.5C42.9609 31.2188 45 29.0391 45 26.4375V18.5625C45 15.8203 42.6797 13.5 39.9375 13.5ZM5.0625 30.375C2.88281 30.375 1.125 28.6172 1.125 26.4375V18.5625C1.125 16.4531 2.88281 14.625 5.0625 14.625H21.1641C19.1953 16.6641 18 19.4766 18 22.5C18 25.5938 19.1953 28.4062 21.1641 30.375H5.0625ZM29.25 32.625C23.625 32.625 19.125 28.125 19.125 22.5C19.125 16.9453 23.625 12.375 29.25 12.375C34.8047 12.375 39.375 16.9453 39.375 22.5C39.375 28.125 34.8047 32.625 29.25 32.625ZM43.875 26.4375C43.875 28.6172 42.0469 30.375 39.9375 30.375H37.2656C39.2344 28.4062 40.5 25.5938 40.5 22.5C40.5 19.4766 39.2344 16.6641 37.2656 14.625H39.9375C42.0469 14.625 43.875 16.4531 43.875 18.5625V26.4375Z" fill="#000080"/>
</svg>
