<svg width="36" height="36" viewBox="0 0 36 36" fill="none" xmlns="http://www.w3.org/2000/svg">
<path d="M7.3125 9C7.59375 9 7.875 8.78906 7.875 8.4375V2.53125C7.875 1.75781 8.4375 1.125 9.28125 1.125H13.2188C13.9922 1.125 14.625 1.75781 14.625 2.53125V8.4375C14.625 8.78906 14.8359 9 15.1875 9C15.4688 9 15.75 8.78906 15.75 8.4375V2.53125C15.75 1.19531 14.5547 0 13.2188 0H9.28125C7.875 0 6.75 1.19531 6.75 2.53125V8.4375C6.75 8.78906 6.96094 9 7.3125 9ZM34.875 9C34.2422 9 33.75 9.5625 33.75 10.125C33.75 10.7578 34.2422 11.25 34.875 11.25C35.4375 11.25 36 10.7578 36 10.125C36 9.5625 35.4375 9 34.875 9ZM15.75 11.25H6.75C3.02344 11.25 0 14.2734 0 18V33.75C0 35.0156 0.984375 36 2.25 36H20.25C21.4453 36 22.5 35.0156 22.5 33.75V18C22.5 14.2734 19.4766 11.25 15.75 11.25ZM21.375 33.75C21.375 34.3828 20.8125 34.875 20.25 34.875H2.25C1.61719 34.875 1.125 34.3828 1.125 33.75V18C1.125 14.9062 3.58594 12.375 6.75 12.375H15.75C18.8438 12.375 21.375 14.9062 21.375 18V33.75ZM11.25 17.4375C7.80469 17.4375 5.0625 20.25 5.0625 23.625C5.0625 27.0703 7.80469 29.8125 11.25 29.8125C14.625 29.8125 17.4375 27.0703 17.4375 23.625C17.4375 20.25 14.625 17.4375 11.25 17.4375ZM11.25 28.6875C8.4375 28.6875 6.1875 26.4375 6.1875 23.625C6.1875 20.8828 8.4375 18.5625 11.25 18.5625C13.9922 18.5625 16.3125 20.8828 16.3125 23.625C16.3125 26.4375 13.9922 28.6875 11.25 28.6875ZM34.875 4.5C35.4375 4.5 36 4.00781 36 3.375C36 2.8125 35.4375 2.25 34.875 2.25C34.2422 2.25 33.75 2.8125 33.75 3.375C33.75 4.00781 34.2422 4.5 34.875 4.5ZM28.125 9C27.4922 9 27 9.5625 27 10.125C27 10.7578 27.4922 11.25 28.125 11.25C28.6875 11.25 29.25 10.7578 29.25 10.125C29.25 9.5625 28.6875 9 28.125 9ZM21.375 2.25C20.7422 2.25 20.25 2.8125 20.25 3.375C20.25 4.00781 20.7422 4.5 21.375 4.5C21.9375 4.5 22.5 4.00781 22.5 3.375C22.5 2.8125 21.9375 2.25 21.375 2.25ZM28.125 2.25C27.4922 2.25 27 2.8125 27 3.375C27 4.00781 27.4922 4.5 28.125 4.5C28.6875 4.5 29.25 4.00781 29.25 3.375C29.25 2.8125 28.6875 2.25 28.125 2.25ZM34.875 15.75C34.2422 15.75 33.75 16.3125 33.75 16.875C33.75 17.5078 34.2422 18 34.875 18C35.4375 18 36 17.5078 36 16.875C36 16.3125 35.4375 15.75 34.875 15.75Z" fill="#000080"/>
</svg>
